<svg width="24" height="25" viewBox="0 0 24 25" fill="none" xmlns="http://www.w3.org/2000/svg">
<path d="M19.2806 19.0682C19.3503 19.1379 19.4056 19.2206 19.4433 19.3117C19.481 19.4027 19.5004 19.5003 19.5004 19.5988C19.5004 19.6974 19.481 19.795 19.4433 19.886C19.4056 19.9771 19.3503 20.0598 19.2806 20.1295C19.2109 20.1991 19.1282 20.2544 19.0372 20.2921C18.9461 20.3298 18.8485 20.3493 18.75 20.3493C18.6514 20.3493 18.5539 20.3298 18.4628 20.2921C18.3718 20.2544 18.289 20.1991 18.2194 20.1295L12 13.9091L5.78061 20.1295C5.63988 20.2702 5.44901 20.3493 5.24999 20.3493C5.05097 20.3493 4.8601 20.2702 4.71936 20.1295C4.57863 19.9887 4.49957 19.7979 4.49957 19.5988C4.49957 19.3998 4.57863 19.2089 4.71936 19.0682L10.9397 12.8488L4.71936 6.62946C4.57863 6.48873 4.49957 6.29786 4.49957 6.09884C4.49957 5.89981 4.57863 5.70894 4.71936 5.56821C4.8601 5.42748 5.05097 5.34842 5.24999 5.34842C5.44901 5.34842 5.63988 5.42748 5.78061 5.56821L12 11.7885L18.2194 5.56821C18.3601 5.42748 18.551 5.34842 18.75 5.34842C18.949 5.34842 19.1399 5.42748 19.2806 5.56821C19.4213 5.70894 19.5004 5.89981 19.5004 6.09884C19.5004 6.29786 19.4213 6.48873 19.2806 6.62946L13.0603 12.8488L19.2806 19.0682Z" fill="black"/>
</svg>
